<svg fill="#0d141a" viewBox="0 0 172.23550000000003 20.941499999999998" height="100%" width="100%" xmlns="http://www.w3.org/2000/svg"><path preserveAspectRatio="none" d="M0 0.46L10.49 0.46L10.49 2.92L3.12 2.92L3.12 7.84L9.34 7.84L9.34 10.32L3.12 10.32L3.12 17.09L0 17.09L0 0.46ZM12.94 5.29L15.78 5.29L15.78 17.09L12.94 17.09L12.94 5.29ZM16.20 1.85L16.20 1.85Q16.20 2.22 16.05 2.54Q15.90 2.86 15.66 3.10Q15.41 3.35 15.08 3.49Q14.74 3.63 14.36 3.63L14.36 3.63Q14.00 3.63 13.67 3.49Q13.34 3.35 13.10 3.10Q12.86 2.86 12.71 2.54Q12.57 2.22 12.57 1.85L12.57 1.85Q12.57 1.47 12.71 1.14Q12.86 0.80 13.10 0.56Q13.34 0.32 13.67 0.18Q14.00 0.03 14.36 0.03L14.36 0.03Q14.74 0.03 15.08 0.18Q15.41 0.32 15.66 0.56Q15.90 0.80 16.05 1.14Q16.20 1.47 16.20 1.85ZM21.83 17.09L18.99 17.09L18.99 5.29L20.72 5.29Q21.27 5.29 21.45 5.81L21.45 5.81L21.64 6.74Q22.00 6.37 22.40 6.07Q22.79 5.77 23.24 5.55Q23.68 5.34 24.18 5.22Q24.69 5.11 25.29 5.11L25.29 5.11Q26.25 5.11 27.00 5.43Q27.75 5.76 28.25 6.35Q28.75 6.95 29.01 7.77Q29.27 8.59 29.27 9.58L29.27 9.58L29.27 17.09L26.43 17.09L26.43 9.58Q26.43 8.50 25.93 7.91Q25.43 7.31 24.43 7.31L24.43 7.31Q23.69 7.31 23.05 7.65Q22.40 7.98 21.83 8.56L21.83 8.56L21.83 17.09ZM48.17 8.77L48.17 8.77Q48.17 10.60 47.56 12.16Q46.95 13.72 45.85 14.86Q44.75 16.00 43.19 16.63Q41.64 17.27 39.76 17.27L39.76 17.27Q37.87 17.27 36.31 16.63Q34.75 16.00 33.64 14.86Q32.53 13.72 31.92 12.16Q31.31 10.60 31.31 8.77L31.31 8.77Q31.31 6.95 31.92 5.39Q32.53 3.83 33.64 2.69Q34.75 1.55 36.31 0.91Q37.87 0.28 39.76 0.28L39.76 0.28Q41.64 0.28 43.19 0.92Q44.75 1.56 45.85 2.70Q46.95 3.83 47.56 5.39Q48.17 6.95 48.17 8.77ZM45.00 8.77L45.00 8.77Q45.00 7.41 44.64 6.32Q44.27 5.23 43.60 4.47Q42.92 3.71 41.95 3.31Q40.97 2.91 39.76 2.91L39.76 2.91Q38.54 2.91 37.56 3.31Q36.58 3.71 35.90 4.47Q35.21 5.23 34.84 6.32Q34.48 7.41 34.48 8.77L34.48 8.77Q34.48 10.14 34.84 11.23Q35.21 12.32 35.90 13.07Q36.58 13.82 37.56 14.23Q38.54 14.63 39.76 14.63L39.76 14.63Q40.97 14.63 41.95 14.23Q42.92 13.82 43.60 13.07Q44.27 12.32 44.64 11.23Q45.00 10.14 45.00 8.77ZM53.29 20.94L50.45 20.94L50.45 5.29L52.19 5.29Q52.46 5.29 52.66 5.42Q52.85 5.54 52.91 5.81L52.91 5.81L53.14 6.90Q53.85 6.08 54.78 5.58Q55.71 5.07 56.95 5.07L56.95 5.07Q57.91 5.07 58.71 5.47Q59.51 5.88 60.09 6.64Q60.67 7.41 60.99 8.53Q61.31 9.65 61.31 11.10L61.31 11.10Q61.31 12.42 60.95 13.55Q60.59 14.67 59.93 15.50Q59.27 16.33 58.33 16.80Q57.40 17.26 56.23 17.26L56.23 17.26Q55.23 17.26 54.54 16.96Q53.84 16.65 53.29 16.11L53.29 16.11L53.29 20.94ZM55.97 7.31L55.97 7.31Q55.08 7.31 54.46 7.69Q53.83 8.06 53.29 8.74L53.29 8.74L53.29 14.03Q53.77 14.63 54.34 14.86Q54.91 15.10 55.57 15.10L55.57 15.10Q56.21 15.10 56.74 14.86Q57.26 14.62 57.62 14.12Q57.98 13.63 58.18 12.87Q58.37 12.12 58.37 11.10L58.37 11.10Q58.37 10.06 58.21 9.34Q58.04 8.62 57.73 8.18Q57.42 7.73 56.98 7.52Q56.53 7.31 55.97 7.31ZM71.10 6.57L70.46 7.59Q70.35 7.77 70.22 7.85Q70.09 7.92 69.90 7.92L69.90 7.92Q69.69 7.92 69.45 7.81Q69.22 7.69 68.91 7.55Q68.60 7.41 68.20 7.29Q67.80 7.18 67.26 7.18L67.26 7.18Q66.42 7.18 65.94 7.53Q65.46 7.89 65.46 8.46L65.46 8.46Q65.46 8.84 65.71 9.10Q65.95 9.36 66.36 9.56Q66.77 9.75 67.29 9.91Q67.80 10.06 68.34 10.25Q68.88 10.43 69.40 10.67Q69.92 10.90 70.33 11.26Q70.74 11.63 70.98 12.13Q71.23 12.64 71.23 13.35L71.23 13.35Q71.23 14.20 70.92 14.92Q70.61 15.64 70.01 16.16Q69.41 16.69 68.53 16.98Q67.65 17.27 66.52 17.27L66.52 17.27Q65.91 17.27 65.33 17.16Q64.74 17.05 64.21 16.86Q63.68 16.66 63.22 16.40Q62.77 16.13 62.42 15.82L62.42 15.82L63.08 14.74Q63.20 14.55 63.38 14.44Q63.55 14.34 63.81 14.34L63.81 14.34Q64.08 14.34 64.31 14.49Q64.55 14.64 64.86 14.81Q65.17 14.98 65.59 15.13Q66.01 15.28 66.65 15.28L66.65 15.28Q67.16 15.28 67.52 15.16Q67.88 15.04 68.12 14.85Q68.36 14.65 68.47 14.39Q68.57 14.13 68.57 13.86L68.57 13.86Q68.57 13.44 68.33 13.18Q68.08 12.91 67.67 12.72Q67.26 12.52 66.74 12.37Q66.22 12.21 65.67 12.03Q65.12 11.84 64.60 11.60Q64.08 11.35 63.67 10.97Q63.26 10.59 63.01 10.04Q62.77 9.49 62.77 8.71L62.77 8.71Q62.77 7.98 63.05 7.33Q63.34 6.67 63.90 6.18Q64.46 5.69 65.29 5.40Q66.13 5.11 67.22 5.11L67.22 5.11Q68.44 5.11 69.44 5.51Q70.44 5.91 71.10 6.57L71.10 6.57ZM92.87 8.77L92.87 8.77Q92.87 10.60 92.26 12.13Q91.66 13.66 90.55 14.77Q89.45 15.87 87.89 16.48Q86.34 17.09 84.46 17.09L84.46 17.09L78.11 17.09L78.11 0.46L84.46 0.46Q86.34 0.46 87.89 1.08Q89.45 1.69 90.55 2.79Q91.66 3.89 92.26 5.42Q92.87 6.95 92.87 8.77ZM89.71 8.77L89.71 8.77Q89.71 7.41 89.34 6.32Q88.98 5.23 88.30 4.48Q87.62 3.73 86.65 3.32Q85.67 2.92 84.46 2.92L84.46 2.92L81.22 2.92L81.22 14.63L84.46 14.63Q85.67 14.63 86.65 14.23Q87.62 13.82 88.30 13.07Q88.98 12.32 89.34 11.23Q89.71 10.14 89.71 8.77ZM100.02 5.11L100.02 5.11Q101.13 5.11 102.07 5.46Q103.01 5.82 103.68 6.50Q104.36 7.19 104.74 8.18Q105.12 9.18 105.12 10.45L105.12 10.45Q105.12 10.78 105.09 10.99Q105.06 11.20 104.99 11.32Q104.91 11.44 104.79 11.49Q104.66 11.55 104.47 11.55L104.47 11.55L97.17 11.55Q97.30 13.36 98.15 14.21Q99.00 15.06 100.41 15.06L100.41 15.06Q101.10 15.06 101.60 14.90Q102.10 14.74 102.47 14.55Q102.84 14.35 103.13 14.19Q103.41 14.03 103.67 14.03L103.67 14.03Q103.84 14.03 103.97 14.10Q104.10 14.17 104.19 14.29L104.19 14.29L105.02 15.33Q104.55 15.88 103.96 16.26Q103.37 16.63 102.74 16.85Q102.10 17.08 101.44 17.17Q100.77 17.26 100.15 17.26L100.15 17.26Q98.92 17.26 97.86 16.85Q96.81 16.45 96.02 15.65Q95.24 14.85 94.79 13.67Q94.35 12.49 94.35 10.94L94.35 10.94Q94.35 9.73 94.74 8.67Q95.13 7.60 95.86 6.81Q96.59 6.03 97.64 5.57Q98.69 5.11 100.02 5.11ZM100.07 7.14L100.07 7.14Q98.83 7.14 98.13 7.84Q97.43 8.54 97.23 9.83L97.23 9.83L102.57 9.83Q102.57 9.28 102.42 8.79Q102.27 8.30 101.96 7.93Q101.65 7.57 101.18 7.35Q100.71 7.14 100.07 7.14ZM110.27 17.09L107.43 17.09L107.43 5.29L109.17 5.29Q109.72 5.29 109.89 5.81L109.89 5.81L110.09 6.74Q110.45 6.37 110.84 6.07Q111.24 5.77 111.68 5.55Q112.12 5.34 112.63 5.22Q113.14 5.11 113.73 5.11L113.73 5.11Q114.70 5.11 115.45 5.43Q116.20 5.76 116.70 6.35Q117.20 6.95 117.46 7.77Q117.71 8.59 117.71 9.58L117.71 9.58L117.71 17.09L114.87 17.09L114.87 9.58Q114.87 8.50 114.37 7.91Q113.87 7.31 112.87 7.31L112.87 7.31Q112.14 7.31 111.49 7.65Q110.85 7.98 110.27 8.56L110.27 8.56L110.27 17.09ZM123.35 17.09L120.51 17.09L120.51 5.29L122.24 5.29Q122.80 5.29 122.97 5.81L122.97 5.81L123.15 6.68Q123.46 6.34 123.80 6.05Q124.14 5.76 124.53 5.55Q124.91 5.35 125.36 5.23Q125.80 5.11 126.33 5.11L126.33 5.11Q127.44 5.11 128.16 5.71Q128.88 6.31 129.24 7.31L129.24 7.31Q129.51 6.73 129.93 6.31Q130.34 5.89 130.84 5.62Q131.33 5.36 131.89 5.23Q132.45 5.11 133.01 5.11L133.01 5.11Q133.99 5.11 134.75 5.40Q135.50 5.70 136.02 6.28Q136.54 6.85 136.81 7.68Q137.08 8.51 137.08 9.58L137.08 9.58L137.08 17.09L134.24 17.09L134.24 9.58Q134.24 8.45 133.75 7.88Q133.25 7.31 132.30 7.31L132.30 7.31Q131.86 7.31 131.49 7.46Q131.11 7.61 130.83 7.89Q130.55 8.18 130.39 8.60Q130.23 9.03 130.23 9.58L130.23 9.58L130.23 17.09L127.37 17.09L127.37 9.58Q127.37 8.39 126.90 7.85Q126.42 7.31 125.49 7.31L125.49 7.31Q124.88 7.31 124.34 7.62Q123.81 7.92 123.35 8.45L123.35 8.45L123.35 17.09ZM149.12 9.64L149.12 17.09L147.84 17.09Q147.44 17.09 147.21 16.97Q146.98 16.85 146.87 16.48L146.87 16.48L146.61 15.64Q146.16 16.04 145.73 16.35Q145.30 16.65 144.84 16.86Q144.38 17.07 143.86 17.17Q143.35 17.27 142.71 17.27L142.71 17.27Q141.97 17.27 141.33 17.07Q140.70 16.87 140.25 16.47Q139.79 16.07 139.54 15.47Q139.29 14.87 139.29 14.08L139.29 14.08Q139.29 13.41 139.64 12.76Q139.99 12.11 140.81 11.59Q141.62 11.06 142.98 10.72Q144.34 10.37 146.35 10.33L146.35 10.33L146.35 9.64Q146.35 8.45 145.85 7.88Q145.35 7.31 144.39 7.31L144.39 7.31Q143.70 7.31 143.24 7.47Q142.78 7.64 142.44 7.84Q142.11 8.04 141.82 8.20Q141.53 8.36 141.19 8.36L141.19 8.36Q140.90 8.36 140.69 8.21Q140.48 8.06 140.36 7.84L140.36 7.84L139.84 6.93Q141.88 5.07 144.75 5.07L144.75 5.07Q145.79 5.07 146.60 5.41Q147.41 5.75 147.97 6.35Q148.53 6.96 148.83 7.80Q149.12 8.64 149.12 9.64L149.12 9.64ZM143.60 15.32L143.60 15.32Q144.04 15.32 144.41 15.24Q144.77 15.16 145.10 15.00Q145.43 14.83 145.73 14.60Q146.04 14.36 146.35 14.04L146.35 14.04L146.35 12.05Q145.11 12.11 144.27 12.26Q143.44 12.42 142.93 12.66Q142.43 12.90 142.21 13.22Q142.00 13.55 142.00 13.93L142.00 13.93Q142.00 14.67 142.44 15.00Q142.89 15.32 143.60 15.32ZM154.76 17.09L151.91 17.09L151.91 5.29L153.58 5.29Q154.02 5.29 154.19 5.45Q154.36 5.61 154.42 6.00L154.42 6.00L154.59 7.43Q155.23 6.34 156.08 5.70Q156.93 5.07 157.99 5.07L157.99 5.07Q158.86 5.07 159.44 5.47L159.44 5.47L159.07 7.60Q159.03 7.81 158.92 7.89Q158.80 7.98 158.61 7.98L158.61 7.98Q158.44 7.98 158.14 7.90Q157.84 7.82 157.34 7.82L157.34 7.82Q156.46 7.82 155.82 8.31Q155.19 8.80 154.76 9.74L154.76 9.74L154.76 17.09ZM161.34 0L164.19 0L164.19 9.79L164.71 9.79Q165.00 9.79 165.16 9.71Q165.32 9.63 165.51 9.41L165.51 9.41L168.44 5.78Q168.64 5.55 168.85 5.42Q169.07 5.29 169.43 5.29L169.43 5.29L172.03 5.29L168.36 9.67Q168.16 9.91 167.96 10.11Q167.75 10.32 167.51 10.46L167.51 10.46Q167.75 10.64 167.93 10.87Q168.12 11.10 168.30 11.36L168.30 11.36L172.24 17.09L169.67 17.09Q169.34 17.09 169.11 16.97Q168.88 16.86 168.69 16.58L168.69 16.58L165.69 12.11Q165.52 11.84 165.35 11.76Q165.17 11.68 164.83 11.68L164.83 11.68L164.19 11.68L164.19 17.09L161.34 17.09L161.34 0Z"></path></svg>