<svg xmlns="http://www.w3.org/2000/svg" viewBox="0 0 24 24" fill="none">
  <path d="M12 2C6.48 2 2 6.48 2 12s4.48 10 10 10 10-4.48 10-10S17.52 2 12 2z" fill="#4285F4"/>
  <path d="M6.62 10.79c.44 2.13 2.26 3.72 4.48 3.72 1.52 0 2.8-.62 3.77-1.62l1.73 1.73C15.05 15.88 13.62 16.5 12 16.5c-3.31 0-6-2.69-6-6 0-.26.02-.52.05-.78l1.73 1.73c-.13.44-.16.89-.16 1.34z" fill="#34A853"/>
  <path d="M12 7.5c1.66 0 3.14.68 4.22 1.78l-1.73 1.73C13.8 10.31 12.97 10 12 10c-1.52 0-2.8.62-3.77 1.62L6.5 9.89C7.45 8.38 9.12 7.5 12 7.5z" fill="#EA4335"/>
  <path d="M17.62 12.21l-1.73-1.73c.13-.44.16-.89.16-1.34 0-.26-.02-.52-.05-.78l1.73 1.73c.09.36.27.7.27 1.07 0 .35-.14.69-.38 1.05z" fill="#FBBC04"/>
</svg>
